<?xml version="1.0" encoding="utf-8"?>
<!-- Generator: Adobe Illustrator 25.2.1, SVG Export Plug-In . SVG Version: 6.00 Build 0)  -->
<svg version="1.0" id="Layer_1" xmlns="http://www.w3.org/2000/svg" xmlns:xlink="http://www.w3.org/1999/xlink" x="0px" y="0px"
	 viewBox="0 0 992 992" width="16" height="16" enable-background="new 0 0 992 992" xml:space="preserve">
<path fill="#C5C5C5" d="M112,944V48h576l192,192v704H112z M816,304L624,112H176v768h640V304z M432,496H240V240h192V496z M368,304
	h-64v128h64V304z M368,752h64v64H240v-64h64V624h-64v-64h128V752z M624,432h64v64H496v-64h64V304h-64v-64h128V432z M688,816H496V560
	h192V816z M624,624h-64v128h64V624z"/>
</svg>
