<svg width="16" height="16" viewBox="0 0 105 105" fill="none" xmlns="http://www.w3.org/2000/svg">
    <path
        d="M26.612 102.4c-.534 0-1-.2-1.4-.6-.4-.4-.6-.867-.6-1.4 0-.267.1-.667.3-1.2l34.2-82c.533-1.2 1.4-1.8 2.6-1.8h3.9c.533 0 1 .2 1.4.6.4.4.6.867.6 1.4 0 .467-.067.867-.2 1.2l-34.3 82c-.534 1.2-1.4 1.8-2.6 1.8h-3.9zm27.734 0c-.533 0-1-.2-1.4-.6-.4-.4-.6-.867-.6-1.4 0-.267.1-.667.3-1.2l34.2-82c.533-1.2 1.4-1.8 2.6-1.8h3.9c.533 0 1 .2 1.4.6.4.4.6.867.6 1.4 0 .467-.067.867-.2 1.2l-34.3 82c-.533 1.2-1.4 1.8-2.6 1.8h-3.9z"
        fill="#C5C5C5" />
</svg>