<svg xmlns="http://www.w3.org/2000/svg" width="16" height="16" viewBox="0 0 428.235 428.235"
    style="enable-background:new 0 0 512 512" xml:space="preserve">
    <path xmlns="http://www.w3.org/2000/svg"
        d="M347.941 267.647h-26.765V160.588h26.765c44.277 0 80.294-36.017 80.294-80.294S392.218 0 347.941 0s-80.294 36.017-80.294 80.294v26.765H160.588V80.294C160.588 36.017 124.571 0 80.294 0S0 36.017 0 80.294s36.017 80.294 80.294 80.294h26.765v107.059H80.294C36.017 267.647 0 303.664 0 347.941s36.017 80.294 80.294 80.294 80.294-36.017 80.294-80.294v-26.765h107.059v26.765c0 44.277 36.017 80.294 80.294 80.294s80.294-36.017 80.294-80.294-36.017-80.294-80.294-80.294zM321.176 80.294c0-14.755 12.01-26.765 26.765-26.765s26.765 12.01 26.765 26.765-12.01 26.765-26.765 26.765h-26.765zm-267.647 0c0-14.755 12.01-26.765 26.765-26.765s26.765 12.01 26.765 26.765v26.765H80.294c-14.754 0-26.765-12.01-26.765-26.765zm53.53 267.647c0 14.755-12.01 26.765-26.765 26.765s-26.765-12.01-26.765-26.765 12.01-26.765 26.765-26.765h26.765zm53.529-187.353h107.059v107.059H160.588zm187.353 214.118c-14.755 0-26.765-12.01-26.765-26.765v-26.765h26.765c14.755 0 26.765 12.01 26.765 26.765s-12.01 26.765-26.765 26.765z"
        fill="#424242" data-original="#000000" />
</svg>