<?xml version="1.0"?>
<svg xmlns="http://www.w3.org/2000/svg" xmlns:xlink="http://www.w3.org/1999/xlink" xmlns:svgjs="http://svgjs.com/svgjs" version="1.1" width="512" height="512" x="0" y="0" viewBox="0 0 428.235 428.235" style="enable-background:new 0 0 512 512" xml:space="preserve" class="">
    <g>
        <path xmlns="http://www.w3.org/2000/svg" d="m347.941 267.647h-26.765v-107.059h26.765c44.277 0 80.294-36.017 80.294-80.294s-36.017-80.294-80.294-80.294-80.294 36.017-80.294 80.294v26.765h-107.059v-26.765c0-44.277-36.017-80.294-80.294-80.294s-80.294 36.017-80.294 80.294 36.017 80.294 80.294 80.294h26.765v107.059h-26.765c-44.277 0-80.294 36.017-80.294 80.294s36.017 80.294 80.294 80.294 80.294-36.017 80.294-80.294v-26.765h107.059v26.765c0 44.277 36.017 80.294 80.294 80.294s80.294-36.017 80.294-80.294-36.017-80.294-80.294-80.294zm-26.765-187.353c0-14.755 12.01-26.765 26.765-26.765s26.765 12.01 26.765 26.765-12.01 26.765-26.765 26.765h-26.765zm-267.647 0c0-14.755 12.01-26.765 26.765-26.765s26.765 12.01 26.765 26.765v26.765h-26.765c-14.754 0-26.765-12.01-26.765-26.765zm53.53 267.647c0 14.755-12.01 26.765-26.765 26.765s-26.765-12.01-26.765-26.765 12.01-26.765 26.765-26.765h26.765zm53.529-187.353h107.059v107.059h-107.059zm187.353 214.118c-14.755 0-26.765-12.01-26.765-26.765v-26.765h26.765c14.755 0 26.765 12.01 26.765 26.765s-12.01 26.765-26.765 26.765z" fill="#424242" data-original="#000000" style="" class="" />
    </g>
</svg>
