<svg xmlns="http://www.w3.org/2000/svg" width="16" height="16" viewBox="0 0 18.08 18.08"
    style="enable-background:new 0 0 512 512" xml:space="preserve">
    <g fill="#c5c5c5">
        <path
            d="M6.504 10.283a.378.378 0 0 0-.38.38l.008 2.55H1.026V2.245H8.54v1.36a.945.945 0 0 1 .53-.162h.547V1.729a.342.342 0 0 0-.342-.342H.342A.342.342 0 0 0 0 1.729v12.046c0 .189.153.343.342.343h6.664c.097 0 .19-.042.255-.114l.853-.956v-2.764l-1.61-.001z"
            data-original="#030104" />
        <path
            d="m5.48 9.182 2.208-1.827s.175-.15.018-.307c-.216-.216-2.279-1.77-2.279-1.77s-.274-.276-.274.09v.951H1.979s-.131-.004-.131.166v1.448c0 .237.157.197.157.197h3.213v1.029c-.001.3.262.023.262.023zM17.738 3.962H8.803a.342.342 0 0 0-.341.342V16.35c0 .188.153.342.341.342h6.664c.098 0 .19-.042.255-.114l2.271-2.542a.338.338 0 0 0 .087-.227V4.305a.343.343 0 0 0-.342-.343zm-.735 8.897-2.037-.001h-.001c-.101 0-.196.04-.268.11s-.111.168-.11.269l.007 2.55H9.49V4.819h7.514l-.001 8.04z"
            data-original="#030104" />
        <path
            d="M12.654 12.288s.274.275.274-.09v-.951h3.173s.132.005.132-.165V9.633c0-.237-.156-.196-.156-.196h-3.214V8.408c0-.301-.262-.023-.262-.023l-2.209 1.826s-.175.15-.018.308c.216.214 2.28 1.769 2.28 1.769z"
            data-original="#030104" />
    </g>
</svg>