<svg xmlns="http://www.w3.org/2000/svg" width="16" height="16" viewBox="0 0 511.993 511.993"
    style="enable-background:new 0 0 512 512" xml:space="preserve">
    <path
        d="M348.051 432.202 150.937 10.894c-4.421-9.446-15.668-13.527-25.121-9.106-9.453 4.421-13.527 15.668-9.106 25.121l197.108 421.308c3.218 6.858 10.019 10.888 17.129 10.888 2.683 0 5.403-.579 7.998-1.782 9.453-4.421 13.527-15.668 9.106-25.121z"
        fill="#c5c5c5" data-original="#000000" />
    <path
        d="M400.208 331.882c-49.656 0-90.055 40.399-90.055 90.055s40.399 90.055 90.055 90.055c49.663 0 90.062-40.399 90.062-90.055 0-49.656-40.399-90.055-90.062-90.055zm0 142.325c-28.818 0-52.27-23.452-52.27-52.27s23.452-52.27 52.27-52.27c28.824 0 52.276 23.452 52.276 52.27s-23.452 52.27-52.276 52.27zM386.164 1.787c-9.453-4.427-20.7-.346-25.121 9.106L163.935 432.202c-4.421 9.453-.34 20.7 9.106 25.121a18.883 18.883 0 0 0 7.998 1.782c7.11 0 13.918-4.03 17.117-10.888L395.271 26.909c4.42-9.453.346-20.701-9.107-25.122z"
        fill="#c5c5c5" data-original="#000000" />
    <path
        d="M111.778 331.882c-49.656 0-90.055 40.399-90.055 90.055s40.399 90.055 90.055 90.055c49.656 0 90.055-40.399 90.055-90.055.001-49.656-40.398-90.055-90.055-90.055zm0 142.325c-28.824 0-52.27-23.452-52.27-52.27s23.446-52.27 52.27-52.27 52.27 23.452 52.27 52.27-23.445 52.27-52.27 52.27z"
        fill="#c5c5c5" data-original="#000000" />
</svg>