<svg xmlns="http://www.w3.org/2000/svg" height="16" viewBox="0 -11 511.999 511" width="16">
    <g fill-rule="evenodd">
        <path
            d="M501.996 242.219c5.524 0 10.004-4.48 10.004-10.004a9.975 9.975 0 0 0-2.895-7.04l-38.253-43.128h31.14c5.528 0 10.008-4.48 10.008-10.008a9.973 9.973 0 0 0-2.895-7.035l-38.265-43.16h31.133a10.007 10.007 0 0 0 7.484-16.645L419.582 3.867A10.008 10.008 0 0 0 412.098.5h-116.13c-5.523 0-10.003 4.48-10.003 10.004 0 5.527 4.48 10.008 10.004 10.008h111.629l72.129 81.32H32.25l72.11-81.32h111.624c5.524 0 10.004-4.48 10.004-10.008C225.988 4.98 221.508.5 215.984.5H99.855c-2.859 0-5.585 1.227-7.484 3.367L2.52 105.2a10.004 10.004 0 0 0 7.488 16.64h31.129L2.52 165.403a10.004 10.004 0 0 0 7.488 16.64h31.125L2.52 225.575a10 10 0 0 0-1.637 10.742 10 10 0 0 0 9.125 5.903h31.12L2.52 285.746a10.014 10.014 0 0 0-1.637 10.746 10.004 10.004 0 0 0 9.125 5.899h31.125L2.52 345.92a10 10 0 0 0-1.637 10.743 10 10 0 0 0 9.125 5.902h31.129L2.52 406.125a10 10 0 0 0-1.637 10.742 10 10 0 0 0 9.125 5.903H186.14c19.195 15.25 43.468 24.375 69.836 24.375 25.71 0 50.105-8.583 69.921-24.375h4.024l63.906 63.878a9.963 9.963 0 0 0 7.07 2.926 9.979 9.979 0 0 0 7.079-2.93c3.906-3.91 3.902-10.242-.004-14.152l-49.746-49.722h143.746a10 10 0 0 0 9.125-5.903 10 10 0 0 0-1.637-10.742l-38.617-43.559h31.129c3.937 0 7.511-2.312 9.125-5.902a9.993 9.993 0 0 0-1.641-10.742l-38.605-43.531h31.12a10.006 10.006 0 0 0 7.488-16.645l-38.608-43.527h31.12zM67.88 121.839h376.223l35.632 40.192H32.246zm0 120.38h124.14a113.266 113.266 0 0 0-35.59 40.164H32.255zm0 60.172h80.36a112.164 112.164 0 0 0-4.45 40.164H32.254zm0 60.175h79.129c3.785 14.786 10.512 28.399 19.512 40.192H32.246zm95.64-27.89c0-50.98 41.477-92.457 92.458-92.457 50.98 0 92.457 41.476 92.457 92.457 0 24.715-9.618 47.933-27.086 65.375-17.465 17.465-40.684 27.086-65.371 27.086-50.98 0-92.457-41.477-92.457-92.461zm316.215 68.082H345.512a111.145 111.145 0 0 0 19.468-40.192h79.122zm-.007-60.203H368.172c.176-2.61.273-5.235.273-7.88 0-11.214-1.66-22.05-4.73-32.284h80.387zm0-60.172H355.523a113.266 113.266 0 0 0-35.59-40.164h124.169zm-31.125-60.176H32.254l35.625-40.164h376.223l35.625 40.164zm0 0"
            data-original="#000000" class="active-path" data-old_color="#000000" fill="#424242" />
        <path
            d="M255.977 20.512c5.527 0 10.003-4.508 10.003-10.008C265.98 5.008 261.504.5 255.977.5c-5.5 0-10.008 4.508-10.008 10.004 0 5.5 4.508 10.008 10.008 10.008zm0 0"
            data-original="#000000" class="active-path" data-old_color="#000000" fill="#424242" />
    </g>
</svg>