<?xml version="1.0"?>
<svg xmlns="http://www.w3.org/2000/svg" xmlns:xlink="http://www.w3.org/1999/xlink" version="1.1" id="Capa_1" x="0px" y="0px" width="512px" height="512px" viewBox="0 0 31.27 31.27" style="enable-background:new 0 0 31.27 31.27;" xml:space="preserve" class=""><g><g>
	<g>
		<path d="M23.763,27.253v2.062H2.397V9.338h7.384V1.954h13.981v11.599c0.689,0.166,1.346,0.435,1.953,0.799V0H8.542L0.442,8.55    V31.27h25.273v-2.772l-1.384-1.383C24.147,27.176,23.953,27.207,23.763,27.253z M7.826,3.595v3.789H4.238L7.826,3.595z" data-original="#000000" class="active-path" data-old_color="#000000" fill="#C5C5C5"/>
		<path d="M17.763,14.831H4.739v2.201h11.143c0.32-0.586,0.723-1.132,1.208-1.616C17.302,15.205,17.529,15.014,17.763,14.831z" data-original="#000000" class="active-path" data-old_color="#000000" fill="#C5C5C5"/>
		<path d="M4.739,19.182v2.201h10.355c-0.043-0.318-0.072-0.639-0.072-0.966c0-0.419,0.042-0.831,0.112-1.235H4.739z" data-original="#000000" class="active-path" data-old_color="#000000" fill="#C5C5C5"/>
		<path d="M4.739,25.928h12.93c-0.199-0.16-0.394-0.33-0.576-0.513c-0.506-0.505-0.924-1.073-1.25-1.688H4.739V25.928z" data-original="#000000" class="active-path" data-old_color="#000000" fill="#C5C5C5"/>
	</g>
	<path d="M30.827,26.296l-3.406-3.405c0.991-2.178,0.6-4.834-1.188-6.623c-2.303-2.302-6.049-2.302-8.35,0   c-2.303,2.301-2.303,6.045,0,8.348c1.787,1.789,4.445,2.181,6.623,1.189l3.404,3.405L30.827,26.296z M24.759,23.145   c-1.488,1.488-3.912,1.488-5.401,0c-1.489-1.489-1.489-3.914,0-5.402c1.489-1.489,3.913-1.489,5.401,0   C26.247,19.23,26.248,21.654,24.759,23.145z" data-original="#000000" class="active-path" data-old_color="#000000" fill="#C5C5C5"/>
</g></g> </svg>
