<?xml version="1.0"?>
<svg xmlns="http://www.w3.org/2000/svg" height="512px" viewBox="0 -11 511.99933 511" width="512px">
    <g fill-rule="evenodd">
        <path d="m501.996094 242.21875c5.523437 0 10.003906-4.480469 10.003906-10.003906 0-2.746094-1.105469-5.230469-2.894531-7.039063l-38.253907-43.128906h31.121094.019532c5.527343 0 10.007812-4.480469 10.007812-10.007813 0-2.742187-1.105469-5.226562-2.894531-7.035156l-38.265625-43.160156h31.132812c3.9375 0 7.511719-2.3125 9.125-5.902344 1.613282-3.59375.972656-7.796875-1.640625-10.742187l-89.875-101.332031c-1.898437-2.140626-4.625-3.367188-7.484375-3.367188h-116.128906c-5.523438 0-10.003906 4.480469-10.003906 10.003906 0 5.527344 4.480468 10.007813 10.003906 10.007813h111.628906l72.128906 81.320312h-447.476562l72.109375-81.320312h111.625c5.523437 0 10.003906-4.480469 10.003906-10.007813 0-5.523437-4.480469-10.003906-10.003906-10.003906h-116.128906c-2.859375 0-5.585938 1.226562-7.484375 3.367188l-89.851563 101.332031c-2.613281 2.945312-3.253906 7.148437-1.636719 10.742187 1.613282 3.589844 5.1875 5.898438 9.125 5.898438h31.128907l-38.617188 43.5625c-2.613281 2.945312-3.253906 7.148437-1.636719 10.742187 1.613282 3.589844 5.1875 5.898438 9.125 5.898438h31.125l-38.613281 43.53125c-2.613281 2.945312-3.253906 7.152343-1.636719 10.742187 1.613282 3.59375 5.1875 5.902344 9.125 5.902344h31.121094l-38.609375 43.527344c-2.6093748 2.949218-3.253906 7.152344-1.636719 10.746094 1.613282 3.589843 5.1875 5.898437 9.125 5.898437h31.125l-38.613281 43.53125c-2.613281 2.945313-3.253906 7.152344-1.636719 10.742187 1.613282 3.59375 5.1875 5.902344 9.125 5.902344h31.128907l-38.617188 43.558594c-2.613281 2.949219-3.253906 7.152344-1.636719 10.742188 1.613282 3.59375 5.1875 5.902343 9.125 5.902343h176.132813c19.195313 15.25 43.46875 24.375 69.835937 24.375 25.710938 0 50.105469-8.582031 69.921876-24.375h4.023437l63.90625 63.878907c1.953125 1.953124 4.511719 2.925781 7.070313 2.925781 2.5625 0 5.125-.976563 7.078124-2.929688 3.90625-3.910156 3.902344-10.242187-.003906-14.152343l-49.746094-49.722657h143.746094c3.9375 0 7.511719-2.308593 9.125-5.902343 1.617188-3.589844.976563-7.792969-1.636718-10.742188l-38.617188-43.558594h31.128906c3.9375 0 7.511719-2.3125 9.125-5.902344 1.617188-3.589843.976563-7.796874-1.640625-10.742187l-38.605469-43.53125h31.121094c3.9375 0 7.511719-2.308594 9.125-5.898437 1.617188-3.59375.976563-7.796876-1.636718-10.746094l-38.609376-43.527344h31.121094zm-434.117188-120.378906h376.222656l35.632813 40.191406h-447.488281zm0 120.378906h124.140625c-14.851562 10.304688-27.109375 24.085938-35.589843 40.164062h-124.175782zm0 60.171875h80.359375c-3.070312 10.234375-4.730469 21.066406-4.730469 32.285156 0 2.652344.097657 5.277344.28125 7.878907h-111.535156zm0 60.175781h79.128906c3.785157 14.785156 10.511719 28.398438 19.511719 40.191406h-134.273437zm95.640625-27.890625c0-50.980469 41.476563-92.457031 92.457031-92.457031 50.980469 0 92.457032 41.476562 92.457032 92.457031 0 24.714844-9.617188 47.933594-27.085938 65.375-17.464844 17.464844-40.683594 27.085938-65.371094 27.085938-50.980468 0-92.457031-41.476563-92.457031-92.460938zm316.214844 68.082031h-134.222656c9.1875-12.019531 15.773437-25.648437 19.46875-40.191406h79.121093zm-.007813-60.203124h-111.554687c.175781-2.609376.273437-5.234376.273437-7.878907 0-11.214843-1.660156-22.050781-4.730468-32.285156h80.386718zm0-60.171876h-124.203124c-8.480469-16.078124-20.738282-29.859374-35.589844-40.164062h124.167968zm-31.125-60.175781h-416.347656l35.625-40.164062h376.222656l35.625 40.164062zm0 0" data-original="#000000" class="active-path" data-old_color="#000000" fill="#C5C5C5" />
        <path d="m255.976562 20.511719c5.527344 0 10.003907-4.507813 10.003907-10.007813 0-5.496094-4.476563-10.003906-10.003907-10.003906-5.5 0-10.007812 4.507812-10.007812 10.003906 0 5.5 4.507812 10.007813 10.007812 10.007813zm0 0" data-original="#000000" class="active-path" data-old_color="#000000" fill="#C5C5C5" />
    </g>
</svg>
