<svg xmlns="http://www.w3.org/2000/svg" viewBox="0 0 426.667 426.667" style="enable-background:new 0 0 426.667 426.667"
    xml:space="preserve" width="16" height="16">
    <path
        d="M384 375.147V128L256 0H85.333C61.76 0 42.88 19.093 42.88 42.667L42.667 384c0 23.573 18.88 42.667 42.453 42.667h256.213c9.493 0 18.24-3.2 25.28-8.533L272 323.52c-16.747 11.2-36.907 17.813-58.667 17.813-58.88 0-106.667-47.787-106.667-106.667S154.453 128 213.333 128 320 175.787 320 234.667c0 21.76-6.613 41.92-17.707 58.773L384 375.147z"
        data-original="#000000" class="active-path" data-old_color="#000000" fill="#C5C5C5" />
    <path d="M149.333 234.667c0 35.307 28.693 64 64 64s64-28.693 64-64-28.693-64-64-64-64 28.693-64 64z"
        data-original="#000000" class="active-path" data-old_color="#000000" fill="#C5C5C5" />
</svg>