<svg xmlns="http://www.w3.org/2000/svg" viewBox="0 0 512 512" style="enable-background:new 0 0 512 512" xml:space="preserve" width="16"
    height="16">
    <path
        d="M183.652 411.826H139.13a5.571 5.571 0 0 1-5.565-5.565v-116.87c0-4.429-1.759-8.675-4.891-11.805L107.089 256l21.586-21.586a16.69 16.69 0 0 0 4.89-11.805v-116.87a5.571 5.571 0 0 1 5.565-5.565h44.522c9.22 0 16.696-7.475 16.696-16.696 0-9.221-7.475-16.696-16.696-16.696H139.13c-21.481 0-38.956 17.476-38.956 38.957v109.954l-28.501 28.501c-6.52 6.519-6.52 17.091 0 23.611l28.501 28.502v109.954c0 21.481 17.476 38.957 38.956 38.957h44.522c9.22 0 16.696-7.475 16.696-16.696 0-9.221-7.475-16.696-16.696-16.696zM440.327 244.195l-28.501-28.502V105.739c0-21.481-17.476-38.957-38.957-38.957h-44.522c-9.22 0-16.696 7.475-16.696 16.696 0 9.221 7.475 16.696 16.696 16.696h44.522a5.571 5.571 0 0 1 5.565 5.565v116.87c0 4.429 1.759 8.675 4.891 11.805L404.911 256l-21.586 21.586a16.69 16.69 0 0 0-4.89 11.805v116.87a5.571 5.571 0 0 1-5.565 5.565h-44.522c-9.22 0-16.696 7.475-16.696 16.696 0 9.221 7.475 16.696 16.696 16.696h44.522c21.481 0 38.957-17.476 38.957-38.957V296.307l28.501-28.501c6.519-6.519 6.519-17.091-.001-23.611z"
        data-original="#000000" class="active-path" data-old_color="#0F00FF" style="fill:#424242"
        transform="matrix(1.15 0 0 1.15 -38.4 -38.4)" />
</svg>