<?xml version="1.0" encoding="UTF-8" standalone="no"?>
<svg xmlns:dc="http://purl.org/dc/elements/1.1/" xmlns:cc="http://creativecommons.org/ns#" xmlns:rdf="http://www.w3.org/1999/02/22-rdf-syntax-ns#" xmlns:svg="http://www.w3.org/2000/svg" xmlns="http://www.w3.org/2000/svg" xmlns:sodipodi="http://sodipodi.sourceforge.net/DTD/sodipodi-0.dtd" xmlns:inkscape="http://www.inkscape.org/namespaces/inkscape" version="1.1" id="Layer_1" x="0px" y="0px" viewBox="0 0 512 512" style="enable-background:new 0 0 512 512;" xml:space="preserve" width="512px" height="512px" class="" sodipodi:docname="brackets.svg" inkscape:version="0.92.2 (5c3e80d, 2017-08-06)">
  <metadata id="metadata27">
    <rdf:RDF>
      <cc:Work rdf:about="">
        <dc:format>image/svg+xml</dc:format>
        <dc:type rdf:resource="http://purl.org/dc/dcmitype/StillImage" />
      </cc:Work>
    </rdf:RDF>
  </metadata>
  <defs id="defs25" />
  <sodipodi:namedview pagecolor="#ffffff" bordercolor="#666666" borderopacity="1" objecttolerance="10" gridtolerance="10" guidetolerance="10" inkscape:pageopacity="0" inkscape:pageshadow="2" inkscape:window-width="1920" inkscape:window-height="986" id="namedview23" showgrid="false" inkscape:zoom="0.4609375" inkscape:cx="256" inkscape:cy="256" inkscape:window-x="-11" inkscape:window-y="-11" inkscape:window-maximized="1" inkscape:current-layer="Layer_1" />
  <g id="g20" transform="matrix(1.15,0,0,1.15,-38.400075,-38.4)">
    <g id="g10">
      <path d="M 183.652,411.826 H 139.13 c -3.069,0 -5.565,-2.497 -5.565,-5.565 v -116.87 c 0,-4.429 -1.759,-8.675 -4.891,-11.805 L 107.089,256 128.675,234.414 c 3.131,-3.13 4.89,-7.376 4.89,-11.805 v -116.87 c 0,-3.069 2.497,-5.565 5.565,-5.565 h 44.522 c 9.22,0 16.696,-7.475 16.696,-16.696 0,-9.221 -7.475,-16.696 -16.696,-16.696 H 139.13 c -21.481,0 -38.956,17.476 -38.956,38.957 v 109.954 l -28.501,28.501 c -6.52,6.519 -6.52,17.091 0,23.611 l 28.501,28.502 v 109.954 c 0,21.481 17.476,38.957 38.956,38.957 h 44.522 c 9.22,0 16.696,-7.475 16.696,-16.696 0,-9.221 -7.475,-16.696 -16.696,-16.696 z" data-original="#000000" class="active-path" data-old_color="#0F00FF" id="path8" inkscape:connector-curvature="0" style="fill:#424242" />
    </g>
    <g id="g16">
      <path d="M 440.327,244.195 411.826,215.693 V 105.739 c 0,-21.481 -17.476,-38.957 -38.957,-38.957 h -44.522 c -9.22,0 -16.696,7.475 -16.696,16.696 0,9.221 7.475,16.696 16.696,16.696 h 44.522 c 3.069,0 5.565,2.497 5.565,5.565 v 116.87 c 0,4.429 1.759,8.675 4.891,11.805 L 404.911,256 383.325,277.586 c -3.131,3.13 -4.89,7.376 -4.89,11.805 v 116.87 c 0,3.069 -2.497,5.565 -5.565,5.565 h -44.522 c -9.22,0 -16.696,7.475 -16.696,16.696 0,9.221 7.475,16.696 16.696,16.696 h 44.522 c 21.481,0 38.957,-17.476 38.957,-38.957 V 296.307 l 28.501,-28.501 c 6.519,-6.519 6.519,-17.091 -10e-4,-23.611 z" data-original="#000000" class="active-path" data-old_color="#0F00FF" id="path14" inkscape:connector-curvature="0" style="fill:#424242" />
    </g>
  </g>
</svg>
