<?xml version="1.0"?>
<svg xmlns="http://www.w3.org/2000/svg" height="512px" viewBox="0 -10 490.66667 490" width="512px" class="">
    <g>
        <path d="m469.332031 43h-426.664062c-11.777344 0-21.335938-9.558594-21.335938-21.332031 0-11.777344 9.558594-21.335938 21.335938-21.335938h426.664062c11.777344 0 21.335938 9.558594 21.335938 21.335938 0 11.773437-9.558594 21.332031-21.335938 21.332031zm0 0" data-original="#000000" class="active-path" data-old_color="#000000" fill="#C5C5C5" />
        <path d="m469.332031 149.667969h-213.332031c-11.777344 0-21.332031-9.558594-21.332031-21.335938 0-11.773437 9.554687-21.332031 21.332031-21.332031h213.332031c11.777344 0 21.335938 9.558594 21.335938 21.332031 0 11.777344-9.558594 21.335938-21.335938 21.335938zm0 0" data-original="#000000" class="active-path" data-old_color="#000000" fill="#C5C5C5" />
        <path d="m469.332031 256.332031h-213.332031c-11.777344 0-21.332031-9.554687-21.332031-21.332031s9.554687-21.332031 21.332031-21.332031h213.332031c11.777344 0 21.335938 9.554687 21.335938 21.332031s-9.558594 21.332031-21.335938 21.332031zm0 0" data-original="#000000" class="active-path" data-old_color="#000000" fill="#C5C5C5" />
        <path d="m469.332031 363h-213.332031c-11.777344 0-21.332031-9.558594-21.332031-21.332031 0-11.777344 9.554687-21.335938 21.332031-21.335938h213.332031c11.777344 0 21.335938 9.558594 21.335938 21.335938 0 11.773437-9.558594 21.332031-21.335938 21.332031zm0 0" data-original="#000000" class="active-path" data-old_color="#000000" fill="#C5C5C5" />
        <path d="m469.332031 469.667969h-426.664062c-11.777344 0-21.335938-9.558594-21.335938-21.335938 0-11.773437 9.558594-21.332031 21.335938-21.332031h426.664062c11.777344 0 21.335938 9.558594 21.335938 21.332031 0 11.777344-9.558594 21.335938-21.335938 21.335938zm0 0" data-original="#000000" class="active-path" data-old_color="#000000" fill="#C5C5C5" />
        <path d="m186.902344 223.265625-74.667969-69.332031c-4.671875-4.332032-11.457031-5.441406-17.300781-2.945313-5.824219 2.539063-9.601563 8.300781-9.601563 14.679688v48h-64c-11.796875 0-21.332031 9.554687-21.332031 21.332031s9.535156 21.332031 21.332031 21.332031h64v48c0 6.359375 3.777344 12.117188 9.601563 14.679688 2.070312.875 4.222656 1.320312 6.398437 1.320312 3.96875 0 7.875-1.46875 10.902344-4.265625l74.667969-69.332031c3.242187-3.050781 5.097656-7.296875 5.097656-11.734375s-1.855469-8.703125-5.097656-11.734375zm0 0" data-original="#000000" class="active-path" data-old_color="#000000" fill="#C5C5C5" />
    </g>
</svg>
