<svg xmlns="http://www.w3.org/2000/svg" height="16" viewBox="0 -10 490.667 490" width="16">
    <path
        d="M469.332 43H42.668c-11.777 0-21.336-9.559-21.336-21.332C21.332 9.891 30.891.332 42.668.332h426.664c11.777 0 21.336 9.559 21.336 21.336 0 11.773-9.559 21.332-21.336 21.332zM469.332 149.668H256c-11.777 0-21.332-9.559-21.332-21.336 0-11.773 9.555-21.332 21.332-21.332h213.332c11.777 0 21.336 9.559 21.336 21.332 0 11.777-9.559 21.336-21.336 21.336zM469.332 256.332H256c-11.777 0-21.332-9.555-21.332-21.332s9.555-21.332 21.332-21.332h213.332c11.777 0 21.336 9.555 21.336 21.332s-9.559 21.332-21.336 21.332zM469.332 363H256c-11.777 0-21.332-9.559-21.332-21.332 0-11.777 9.555-21.336 21.332-21.336h213.332c11.777 0 21.336 9.559 21.336 21.336 0 11.773-9.559 21.332-21.336 21.332zM469.332 469.668H42.668c-11.777 0-21.336-9.559-21.336-21.336 0-11.773 9.559-21.332 21.336-21.332h426.664c11.777 0 21.336 9.559 21.336 21.332 0 11.777-9.559 21.336-21.336 21.336zM186.902 223.266l-74.668-69.332c-4.671-4.332-11.457-5.442-17.3-2.946a16.01 16.01 0 0 0-9.602 14.68v48h-64C9.535 213.668 0 223.223 0 235s9.535 21.332 21.332 21.332h64v48c0 6.36 3.777 12.117 9.602 14.68 2.07.875 4.222 1.32 6.398 1.32a16.05 16.05 0 0 0 10.902-4.266l74.668-69.332c3.243-3.05 5.098-7.296 5.098-11.734s-1.855-8.703-5.098-11.734zm0 0"
        data-original="#000000" class="active-path" data-old_color="#000000" fill="#C5C5C5" />
</svg>