<svg width="551" viewBox="0 0 551 551" height="551" fill="none" xmlns="http://www.w3.org/2000/svg"><path d="M270.758 86.232 508.75 200.727v163.414L271.489 465.078 42 364.464v-163.95L270.758 86.232z" fill="url(#a)" stroke="url(#b)" stroke-width="50"/><path d="M270.758 86 508.75 200.494v163.414L271.489 464.845 42 364.232v-163.95L270.758 86z" stroke="#fff" stroke-width="16" stroke-linecap="round" stroke-linejoin="round"/><path d="M129.73 272c-.741 0-1.347-.202-1.818-.606-.472-.471-.707-1.077-.707-1.818v-65.751c0-.741.235-1.347.707-1.818.471-.471 1.077-.707 1.818-.707h7.979c1.414 0 2.424.64 3.03 1.919l19.493 36.36 19.695-36.36c.673-1.279 1.683-1.919 3.03-1.919h7.878c.74 0 1.346.236 1.818.707.471.471.707 1.077.707 1.818v65.751c0 .741-.236 1.347-.707 1.818-.472.404-1.078.606-1.818.606h-8.484a2.337 2.337 0 0 1-1.717-.707 2.335 2.335 0 0 1-.707-1.717v-43.733l-14.14 26.967c-.876 1.481-2.02 2.222-3.434 2.222h-4.141c-1.414 0-2.559-.741-3.434-2.222l-14.14-26.967v43.733c0 .673-.236 1.246-.707 1.717-.404.471-.977.707-1.717.707h-8.484zm89.844 0a2.339 2.339 0 0 1-1.717-.707 2.339 2.339 0 0 1-.707-1.717v-65.751c0-.741.202-1.347.606-1.818.471-.471 1.077-.707 1.818-.707h44.44c.741 0 1.347.236 1.818.707.471.471.707 1.077.707 1.818v6.666c0 .741-.236 1.347-.707 1.818-.471.404-1.077.606-1.818.606h-33.229v17.877h31.007c.741 0 1.347.236 1.818.707.471.404.707.976.707 1.717v6.262c0 .741-.236 1.347-.707 1.818-.471.404-1.077.606-1.818.606h-31.007v18.483h34.037c.741 0 1.347.236 1.818.707.471.471.707 1.077.707 1.818v6.666c0 .741-.236 1.347-.707 1.818-.471.404-1.077.606-1.818.606h-45.248zm70.909 0a2.339 2.339 0 0 1-1.717-.707 2.339 2.339 0 0 1-.707-1.717v-65.751c0-.741.202-1.347.606-1.818.471-.471 1.077-.707 1.818-.707h7.777c.808 0 1.414.168 1.818.505.404.269.774.64 1.111 1.111l29.088 45.248v-44.339c0-.741.202-1.347.606-1.818.471-.471 1.077-.707 1.818-.707h8.484c.741 0 1.347.236 1.818.707.471.471.707 1.077.707 1.818v65.65c0 .741-.236 1.347-.707 1.818a2.339 2.339 0 0 1-1.717.707h-7.878c-1.145 0-2.121-.539-2.929-1.616l-28.987-44.238v43.43c0 .741-.236 1.347-.707 1.818-.471.404-1.077.606-1.818.606h-8.484zm105.245 1.01c-9.09 0-16.16-2.323-21.21-6.969-5.05-4.646-7.575-11.682-7.575-21.109v-41.107c0-.741.202-1.347.606-1.818.472-.471 1.078-.707 1.818-.707h9.191c.741 0 1.313.236 1.717.707.472.471.707 1.077.707 1.818v41.107c0 5.387 1.28 9.46 3.838 12.221 2.559 2.693 6.195 4.04 10.908 4.04 4.714 0 8.316-1.347 10.807-4.04 2.559-2.761 3.838-6.834 3.838-12.221v-41.107c0-.741.236-1.347.707-1.818.472-.471 1.078-.707 1.818-.707h9.09c.741 0 1.313.236 1.717.707.472.471.707 1.077.707 1.818v41.107c0 9.427-2.525 16.463-7.575 21.109-4.982 4.646-12.019 6.969-21.109 6.969zM174.552 376a2.339 2.339 0 0 1-1.717-.707 2.339 2.339 0 0 1-.707-1.717v-65.751c0-.741.202-1.347.606-1.818.471-.471 1.077-.707 1.818-.707h29.29c7.878 0 13.736 1.751 17.574 5.252 3.905 3.434 5.858 8.147 5.858 14.14 0 3.501-.875 6.498-2.626 8.989-1.683 2.424-3.67 4.175-5.959 5.252 2.828 1.279 5.185 3.367 7.07 6.262 1.953 2.895 2.929 6.195 2.929 9.898 0 6.262-2.121 11.312-6.363 15.15-4.175 3.838-10.066 5.757-17.675 5.757h-30.098zm27.472-41.713c3.501 0 6.161-.842 7.979-2.525 1.818-1.683 2.727-3.939 2.727-6.767 0-2.895-.909-5.117-2.727-6.666-1.818-1.616-4.478-2.424-7.979-2.424h-15.857v18.382h15.857zm1.01 31.007c3.501 0 6.228-.943 8.181-2.828 1.953-1.953 2.929-4.41 2.929-7.373 0-3.03-.976-5.488-2.929-7.373-1.953-1.953-4.68-2.929-8.181-2.929h-16.867v20.503h16.867zM244.218 376c-.539 0-1.044-.202-1.515-.606-.404-.404-.606-.909-.606-1.515l.202-.909 24.341-65.145c.471-1.683 1.649-2.525 3.535-2.525h11.009c1.75 0 2.929.842 3.535 2.525l24.341 65.145c.067.202.101.505.101.909 0 .606-.202 1.111-.606 1.515-.404.404-.876.606-1.414.606h-8.787c-.876 0-1.549-.202-2.02-.606-.472-.404-.775-.842-.909-1.313l-4.747-12.322h-29.997l-4.747 12.322c-.539 1.279-1.515 1.919-2.929 1.919h-8.787zm42.925-25.856-11.514-31.209-11.413 31.209h22.927zM329.094 376a2.339 2.339 0 0 1-1.717-.707 2.339 2.339 0 0 1-.707-1.717v-65.751c0-.741.202-1.347.606-1.818.471-.471 1.077-.707 1.818-.707h26.159c8.215 0 14.645 1.919 19.291 5.757 4.713 3.838 7.07 9.292 7.07 16.362 0 4.915-1.212 9.056-3.636 12.423-2.357 3.299-5.656 5.69-9.898 7.171l14.746 25.755c.202.404.303.774.303 1.111 0 .606-.236 1.111-.707 1.515-.404.404-.875.606-1.414.606h-9.191c-1.077 0-1.919-.236-2.525-.707-.539-.471-1.044-1.145-1.515-2.02l-13.029-23.937h-14.039v24.24c0 .673-.236 1.246-.707 1.717-.404.471-.976.707-1.717.707h-9.191zm25.856-38.077c4.04 0 7.07-.909 9.09-2.727 2.087-1.818 3.131-4.444 3.131-7.878s-1.044-6.094-3.131-7.979c-2.02-1.885-5.05-2.828-9.09-2.828h-14.241v21.412h14.241z" fill="#FFFEFE"/><defs><linearGradient id="a" x1="41.571" y1="275.649" x2="509.173" y2="275.649" gradientUnits="userSpaceOnUse"><stop stop-color="#FC8F35"/><stop offset="1" stop-color="#FF6000"/></linearGradient><linearGradient id="b" x1="41.571" y1="275.649" x2="509.173" y2="275.649" gradientUnits="userSpaceOnUse"><stop stop-color="#FC8F35"/><stop offset="1" stop-color="#FF6000"/></linearGradient></defs></svg>