<svg xmlns="http://www.w3.org/2000/svg" viewBox="0 0 512 512" width="16" height="16" style="enable-background:new 0 0 512 512"
    xml:space="preserve">
    <path
        d="m456.606 154.394-150-150A14.996 14.996 0 0 0 296 0H66c-8.284 0-15 6.716-15 15v482c0 8.284 6.716 15 15 15h380c8.284 0 15-6.716 15-15V165c0-3.979-1.581-7.794-4.394-10.606zM431 482H81V30h208.787L431 171.213V482z"
        fill="#c5c5c5" data-original="#000000" />
    <path
        d="M306 241h-35v-35c0-8.284-6.716-15-15-15s-15 6.716-15 15v35h-35c-8.284 0-15 6.716-15 15s6.716 15 15 15h35v35c0 8.284 6.716 15 15 15s15-6.716 15-15v-35h35c8.284 0 15-6.716 15-15s-6.716-15-15-15z"
        fill="#c5c5c5" data-original="#000000" />
</svg>