<?xml version="1.0"?>
<svg xmlns="http://www.w3.org/2000/svg" xmlns:xlink="http://www.w3.org/1999/xlink" xmlns:svgjs="http://svgjs.com/svgjs" version="1.1" width="512" height="512" x="0" y="0" viewBox="0 0 512 512" style="enable-background:new 0 0 512 512" xml:space="preserve" class="">
	<g>
		<path d="M456.606,154.394l-150-150C303.793,1.58,299.978,0,296,0H66c-8.284,0-15,6.716-15,15v482c0,8.284,6.716,15,15,15h380    c8.284,0,15-6.716,15-15V165C461,161.021,459.419,157.206,456.606,154.394z M431,482H81V30h208.787L431,171.213V482z" fill="#c5c5c5" data-original="#000000" style="" class="" />
	</g>
	<g>
		<path d="M306,241h-35v-35c0-8.284-6.716-15-15-15s-15,6.716-15,15v35h-35c-8.284,0-15,6.716-15,15s6.716,15,15,15h35v35    c0,8.284,6.716,15,15,15s15-6.716,15-15v-35h35c8.284,0,15-6.716,15-15S314.284,241,306,241z" fill="#c5c5c5" data-original="#000000" style="" class="" />
	</g>
</svg>
