<svg xmlns="http://www.w3.org/2000/svg"  width="16" height="16" viewBox="0 0 490.667 490"><path xmlns="http://www.w3.org/2000/svg" d="M21.336 43H448c11.777 0 21.336-9.559 21.336-21.332C469.336 9.891 459.777.332 448 .332H21.336C9.559.332 0 9.891 0 21.668 0 33.441 9.559 43 21.336 43zm0 0M21.336 149.668h213.332c11.777 0 21.332-9.559 21.332-21.336 0-11.773-9.555-21.332-21.332-21.332H21.336C9.559 107 0 116.559 0 128.332c0 11.777 9.559 21.336 21.336 21.336zm0 0M21.336 256.332h213.332c11.777 0 21.332-9.555 21.332-21.332s-9.555-21.332-21.332-21.332H21.336C9.559 213.668 0 223.223 0 235s9.559 21.332 21.336 21.332zm0 0M21.336 363h213.332c11.777 0 21.332-9.559 21.332-21.332 0-11.777-9.555-21.336-21.332-21.336H21.336C9.559 320.332 0 329.891 0 341.668 0 353.441 9.559 363 21.336 363zm0 0M21.336 469.668H448c11.777 0 21.336-9.559 21.336-21.336 0-11.773-9.559-21.332-21.336-21.332H21.336C9.559 427 0 436.559 0 448.332c0 11.777 9.559 21.336 21.336 21.336zm0 0M303.766 223.266l74.668-69.332c4.671-4.332 11.457-5.442 17.3-2.946a16.01 16.01 0 019.602 14.68v48h64c11.797 0 21.332 9.555 21.332 21.332s-9.535 21.332-21.332 21.332h-64v48c0 6.36-3.777 12.117-9.602 14.68-2.07.875-4.222 1.32-6.398 1.32a16.05 16.05 0 01-10.902-4.266l-74.668-69.332c-3.243-3.05-5.098-7.296-5.098-11.734s1.855-8.703 5.098-11.734zm0 0" fill="#c5c5c5" data-original="#000000"/></svg>