<svg xmlns="http://www.w3.org/2000/svg" width="16" height="16" viewBox="0 0 469.333 469.333"
    style="enable-background:new 0 0 512 512" xml:space="preserve">
    <path
        d="M384 42.667h-89.28C285.973 17.92 262.507 0 234.667 0s-51.307 17.92-60.053 42.667h-89.28c-23.573 0-42.667 19.093-42.667 42.667v341.333c0 23.573 19.093 42.667 42.667 42.667H384c23.573 0 42.667-19.093 42.667-42.667V85.333c0-23.573-19.094-42.666-42.667-42.666zm-149.333 0C246.4 42.667 256 52.16 256 64s-9.6 21.333-21.333 21.333S213.333 75.84 213.333 64s9.6-21.333 21.334-21.333zm149.333 384H85.333V85.333H128v64h213.333v-64H384v341.334z"
        fill="#c5c5c5" data-original="#000000" />
</svg>