<?xml version="1.0" encoding="utf-8"?>
<!-- Generator: Adobe Illustrator 25.2.1, SVG Export Plug-In . SVG Version: 6.00 Build 0)  -->
<svg version="1.1" id="Layer_1" xmlns="http://www.w3.org/2000/svg" xmlns:xlink="http://www.w3.org/1999/xlink" x="0px" y="0px"
	 viewBox="0 0 2834.6 2834.6" style="enable-background:new 0 0 2834.6 2834.6;" xml:space="preserve">
<style type="text/css">
	.st0{fill:#424242;}
</style>
<path id="path" class="st0" d="M0,0v99.2l2735.4,2735.4h99.2v-99.2L99.2,0H0L0,0 M751.2,402.5c592.4,5.7,1182,2.8,1774.5,2.8
	c39.7,0,73.7,0,104.9,8.5c76.5,19.8,116.2,79.4,119.1,153.1c0,34-5.7,68-17,107.7c-107.7,493.2-215.4,989.3-326,1482.5
	c-22.7,96.4-48.2,170.1-110.6,218.3c-62.4,48.2-138.9,56.7-240.9,56.7c-283.5,0-569.8,0-856.1,0c-294.8,0-589.6,0-887.2,0
	c-39.7,0-73.7-2.8-104.9-11.3c-76.5-22.7-119.1-79.4-121.9-153.1c0-34,5.7-68,17-107.7c113.4-504.6,232.4-1006.3,343-1508
	c17-76.5,45.4-141.7,99.2-187.1C612.3,419.5,626.5,402.5,751.2,402.5L751.2,402.5 M635,572.6c-19.8,19.8-39.7,51-51,110.6
	c-113.4,501.7-229.6,1006.3-345.8,1508c-17,90.7-2.8,96.4,76.5,99.2c294.8,0,589.6,0,884.4,0c286.3,0,572.6,0,856.1,0
	c93.5,0,136.1-11.3,155.9-25.5c19.8-17,36.9-51,56.7-138.9c110.6-493.2,221.1-986.5,328.8-1479.7l0,0c19.8-76.5,5.7-99.2-70.9-99.2
	c-620.8,2.8-1250.1-5.7-1780.2-2.8C688.8,544.3,657.6,555.6,635,572.6L635,572.6 M1187.7,805l496.1,566.9
	c25.5,28.3,22.7,76.5-11.3,102L822,2111.8c-31.2,25.5-76.5,17-99.2-14.2c-25.5-31.2-17-76.5,14.2-99.2l788-592.4l-445-510.2
	c-17-19.8-22.7-48.2-11.3-73.7c11.3-25.5,34-42.5,62.4-42.5C1153.7,776.7,1173.5,788,1187.7,805L1187.7,805 M1771.7,1913.4
	c39.7,0,70.9,31.2,70.9,70.9c0,39.7-31.2,70.9-70.9,70.9h-425.2c-39.7,0-70.9-31.2-70.9-70.9c0-39.7,31.2-70.9,70.9-70.9
	L1771.7,1913.4"/>
</svg>
