<svg width="16" height="16" viewBox="0 0 32 32" fill="none" xmlns="http://www.w3.org/2000/svg">
    <path
        d="m30.517 8.097-5.16-4.877c-.145-.137-.346-.22-.613-.22H7.865A.853.853 0 0 0 7 3.865v21.079c0 .488.378.865.865.865h22.07a.853.853 0 0 0 .865-.865V8.742a.852.852 0 0 0-.283-.645zm-12.978-3.35h2.926V9.67H17.54V4.746zm11.53 19.316H8.73V4.746h3.587v6.858h10.177V4.746h1.935l4.64 4.342v14.975z"
        fill="#C5C5C5" />
    <path fill-rule="evenodd" clip-rule="evenodd"
        d="M8 8H1.865A.853.853 0 0 0 1 8.865v21.079c0 .488.378.865.865.865h22.07a.853.853 0 0 0 .865-.865V25h-1.73v4.063H2.73V9.746H8V8z"
        fill="#C5C5C5" />
</svg>