<?xml version="1.0" encoding="UTF-8" standalone="no"?>
<!-- Generator: Adobe Illustrator 16.0.0, SVG Export Plug-In . SVG Version: 6.00 Build 0)  -->

<svg xmlns:dc="http://purl.org/dc/elements/1.1/" xmlns:cc="http://creativecommons.org/ns#" xmlns:rdf="http://www.w3.org/1999/02/22-rdf-syntax-ns#" xmlns:svg="http://www.w3.org/2000/svg" xmlns="http://www.w3.org/2000/svg" xmlns:sodipodi="http://sodipodi.sourceforge.net/DTD/sodipodi-0.dtd" xmlns:inkscape="http://www.inkscape.org/namespaces/inkscape" version="1.1" id="Capa_1" x="0px" y="0px" width="16" height="16" viewBox="0 0 612 612" style="enable-background:new 0 0 612 612;" xml:space="preserve" sodipodi:docname="save.svg" inkscape:version="0.92.2 (5c3e80d, 2017-08-06)">
  <metadata id="metadata41">
    <rdf:RDF>
      <cc:Work rdf:about="">
        <dc:format>image/svg+xml</dc:format>
        <dc:type rdf:resource="http://purl.org/dc/dcmitype/StillImage" />
      </cc:Work>
    </rdf:RDF>
  </metadata>
  <defs id="defs39" />
  <sodipodi:namedview pagecolor="#ffffff" bordercolor="#666666" borderopacity="1" objecttolerance="10" gridtolerance="10" guidetolerance="10" inkscape:pageopacity="0" inkscape:pageshadow="2" inkscape:window-width="1920" inkscape:window-height="986" id="namedview37" showgrid="false" inkscape:zoom="14.75" inkscape:cx="8" inkscape:cy="8" inkscape:window-x="-11" inkscape:window-y="-11" inkscape:window-maximized="1" inkscape:current-layer="Capa_1" />
  <g id="g4" transform="matrix(0.85,0,0,0.85,45.9,45.9)">
    <path d="M 604.717,143.795 472.05,18.402 c -3.745,-3.529 -8.905,-5.661 -15.783,-5.661 H 22.247 C 9.708,12.741 0,22.449 0,34.988 v 542.025 c 0,12.538 9.708,22.246 22.247,22.246 h 567.507 c 12.538,0 22.246,-9.708 22.246,-22.246 V 160.38 c 0,-6.877 -2.692,-12.245 -7.283,-16.585 z M 271.012,57.64 h 75.24 v 126.609 h -75.24 z M 567.507,554.36 H 44.493 V 57.64 h 92.23 V 233.997 H 398.424 V 57.64 h 49.757 L 567.507,169.286 V 554.36 Z" id="path2" inkscape:connector-curvature="0" style="fill:#424242" />
  </g>
  <g id="g6" transform="matrix(0.85,0,0,0.85,45.9,45.9)" />
  <g id="g8" transform="matrix(0.85,0,0,0.85,45.9,45.9)" />
  <g id="g10" transform="matrix(0.85,0,0,0.85,45.9,45.9)" />
  <g id="g12" transform="matrix(0.85,0,0,0.85,45.9,45.9)" />
  <g id="g14" transform="matrix(0.85,0,0,0.85,45.9,45.9)" />
  <g id="g16" transform="matrix(0.85,0,0,0.85,45.9,45.9)" />
  <g id="g18" transform="matrix(0.85,0,0,0.85,45.9,45.9)" />
  <g id="g20" transform="matrix(0.85,0,0,0.85,45.9,45.9)" />
  <g id="g22" transform="matrix(0.85,0,0,0.85,45.9,45.9)" />
  <g id="g24" transform="matrix(0.85,0,0,0.85,45.9,45.9)" />
  <g id="g26" transform="matrix(0.85,0,0,0.85,45.9,45.9)" />
  <g id="g28" transform="matrix(0.85,0,0,0.85,45.9,45.9)" />
  <g id="g30" transform="matrix(0.85,0,0,0.85,45.9,45.9)" />
  <g id="g32" transform="matrix(0.85,0,0,0.85,45.9,45.9)" />
  <g id="g34" transform="matrix(0.85,0,0,0.85,45.9,45.9)" />
</svg>
