<svg xmlns="http://www.w3.org/2000/svg" width="16" height="16" viewBox="0 0 612 612" style="enable-background:new 0 0 612 612" xml:space="preserve"><path d="M604.717 143.795 472.05 18.402c-3.745-3.529-8.905-5.661-15.783-5.661H22.247C9.708 12.741 0 22.449 0 34.988v542.025c0 12.538 9.708 22.246 22.247 22.246h567.507c12.538 0 22.246-9.708 22.246-22.246V160.38c0-6.877-2.692-12.245-7.283-16.585zM271.012 57.64h75.24v126.609h-75.24zm296.495 496.72H44.493V57.64h92.23v176.357h261.701V57.64h49.757l119.326 111.646V554.36z" style="fill:#c5c5c5" transform="matrix(.85 0 0 .85 45.9 45.9)"/></svg>