<svg class="si-glyph si-glyph-triangle-right" version="1.1" viewBox="0 0 17 16" xmlns="http://www.w3.org/2000/svg" xmlns:xlink="http://www.w3.org/1999/xlink">
    <!--Generator: Sketch 3.0.3 (7891) - http://www.bohemiancoding.com/sketch-->
    <g transform="matrix(0.01532463,0,0,0.01532463,0.56481038,0.1270606)">
        <g stroke-width="1" fill="none" fill-rule="evenodd" stroke="none">
            <path class="si-glyph-fill" d="M 380.6 712.7 c -22.8 -35 -48.9 -87 -78.3 -156 c -8.4 17.2 -15.4 31 -21.2 41.4 c -5.7 10.5 -13.4 22.6 -23.1 36.3 c -9.7 13.7 -19.4 24.5 -29.1 32.3 c -9.7 7.8 -21.7 14.5 -36 20 c -14.3 5.5 -29.8 8.3 -46.6 8.3 c 0 0 -128 0 -128 0 c -5.3 0 -9.7 1.7 -13.2 5.2 c -3.4 3.4 -5.2 7.8 -5.2 13.2 c 0 0 0 109.7 0 109.7 c 0 5.3 1.7 9.7 5.2 13.2 c 3.4 3.4 7.8 5.2 13.2 5.2 c 0 0 128 0 128 0 c 95.2 0 173.3 -42.8 234.3 -128.6 c 0 0 0 -0.1 0 -0.1 M 1024 256.1 c 0 -5.3 -1.7 -9.7 -5.2 -13.2 c 0 0 -182.8 -182.8 -182.8 -182.8 C 832.6 56.7 828.2 55 822.9 55 c -5 0 -9.2 1.8 -12.9 5.4 c -3.6 3.6 -5.4 7.9 -5.4 12.9 c 0 0 0 109.7 0 109.7 c -12.2 0 -28.4 -0.1 -48.6 -0.3 c -20.2 -0.2 -35.6 -0.4 -46.3 -0.6 c -10.7 -0.2 -24.5 0 -41.7 0.6 c -17.2 0.6 -30.7 1.5 -40.6 2.8 c -9.9 1.3 -22.1 3.3 -36.6 6 c -14.5 2.7 -26.5 6.2 -36 10.6 c -9.5 4.4 -20.5 9.8 -33.1 16.3 c -12.6 6.5 -23.8 14.1 -33.7 22.8 c -9.9 8.7 -20.4 18.9 -31.4 30.6 c -11.1 11.6 -21.7 24.9 -32 39.7 c 22.5 35.4 48.4 87.4 77.7 156 c 8.4 -17.2 15.4 -31 21.1 -41.4 c 5.7 -10.5 13.4 -22.6 23.1 -36.3 c 9.7 -13.7 19.4 -24.5 29.1 -32.3 c 9.7 -7.8 21.7 -14.5 36 -20 c 14.3 -5.5 29.8 -8.3 46.6 -8.3 c 0 0 146.3 0 146.3 0 c 0 0 0 109.7 0 109.7 c 0 5.3 1.7 9.7 5.2 13.2 c 3.4 3.4 7.8 5.2 13.2 5.2 c 4.6 0 9.2 -1.9 13.7 -5.7 c 0 0 182.3 -182.3 182.3 -182.3 c 3.4 -3.4 5.2 -7.8 5.2 -13.2 c 0 0 0 0 0 0 m 0 512 c 0 -5.3 -1.7 -9.7 -5.2 -13.2 c 0 0 -182.8 -182.8 -182.8 -182.8 c -3.4 -3.4 -7.8 -5.2 -13.2 -5.2 c -5 0 -9.2 1.8 -12.9 5.4 c -3.6 3.6 -5.4 7.9 -5.4 12.9 c 0 0 0 109.7 0 109.7 c 0 0 -146.3 0 -146.3 0 c -18.3 0 -34.8 -2.8 -49.7 -8.6 c -14.9 -5.7 -28 -14.3 -39.4 -25.7 c -11.4 -11.4 -21.1 -23.1 -29.1 -35.1 c -8 -12 -16.6 -26.8 -25.7 -44.3 c -12.2 -23.6 -27 -56.2 -44.6 -97.7 c -11 -25.1 -20.5 -46.3 -28.3 -63.4 c -7.8 -17.1 -18.1 -37.1 -30.8 -60 c -12.8 -22.9 -25 -41.9 -36.6 -57.1 c -11.6 -15.2 -25.7 -31 -42.3 -47.4 c -16.5 -16.4 -33.7 -29.4 -51.4 -39.1 c -17.7 -9.7 -38 -17.7 -60.9 -24 c -22.8 -6.3 -47.2 -9.4 -73.1 -9.4 c 0 0 -128 0 -128 0 c -5.3 0 -9.7 1.7 -13.2 5.2 C 1.7 191.6 0 196 0 201.3 c 0 0 0 109.7 0 109.7 c 0 5.3 1.7 9.7 5.2 13.2 c 3.4 3.4 7.8 5.2 13.2 5.2 c 0 0 128 0 128 0 c 18.3 0 34.8 2.8 49.7 8.6 c 14.9 5.7 28 14.3 39.4 25.7 c 11.4 11.4 21.1 23.1 29.1 35.1 c 8 12 16.6 26.8 25.7 44.3 c 12.2 23.6 27 56.2 44.6 97.7 c 11 25.1 20.5 46.3 28.3 63.4 c 7.8 17.1 18.1 37.1 30.8 60 c 12.8 22.9 25 41.9 36.6 57.1 c 11.6 15.2 25.7 31 42.3 47.4 c 16.5 16.4 33.7 29.4 51.4 39.1 c 17.7 9.7 38 17.7 60.9 24 c 22.8 6.3 47.2 9.4 73.1 9.4 c 0 0 146.3 0 146.3 0 c 0 0 0 109.7 0 109.7 c 0 5.3 1.7 9.7 5.2 13.2 c 3.4 3.4 7.8 5.2 13.2 5.2 c 4.6 0 9.2 -1.9 13.7 -5.7 c 0 0 182.3 -182.3 182.3 -182.3 c 3.4 -3.4 5.2 -7.8 5.2 -13.2 c 0 0 0 -0.1 0 -0.1" fill="#c5c5c5" />
        </g>
    </g>
</svg>