<svg class="si-glyph si-glyph-triangle-right" viewBox="0 0 17 16" xmlns="http://www.w3.org/2000/svg"><path class="si-glyph-fill" d="M6.397 11.049c-.349-.536-.749-1.333-1.2-2.39-.128.263-.236.474-.324.634-.088.16-.206.346-.354.556-.15.21-.298.375-.446.495a2.048 2.048 0 0 1-1.266.434H.845a.274.274 0 0 0-.282.282v1.68a.274.274 0 0 0 .282.283h1.962c1.459 0 2.656-.656 3.59-1.971v-.002m9.86-6.998a.274.274 0 0 0-.08-.203l-2.8-2.8a.273.273 0 0 0-.202-.08.272.272 0 0 0-.197.084.27.27 0 0 0-.083.197v1.681a78.89 78.89 0 0 1-1.454-.013 12.407 12.407 0 0 0-1.262.052c-.151.02-.338.05-.56.092a2.355 2.355 0 0 0-.552.162c-.146.068-.314.15-.507.25s-.365.216-.517.35c-.151.133-.312.289-.481.468-.17.178-.333.382-.49.609.344.542.741 1.34 1.19 2.39.13-.263.236-.475.324-.634.087-.161.205-.346.354-.556.148-.21.297-.376.446-.495a2.048 2.048 0 0 1 1.265-.434h2.242v1.681a.274.274 0 0 0 .282.282c.07 0 .141-.03.21-.087l2.794-2.794a.275.275 0 0 0 .08-.202m0 7.846a.274.274 0 0 0-.08-.202l-2.801-2.802a.275.275 0 0 0-.203-.08.272.272 0 0 0-.197.083.27.27 0 0 0-.083.198v1.681h-2.242a2.08 2.08 0 0 1-.762-.132 1.71 1.71 0 0 1-.603-.393 3.545 3.545 0 0 1-.446-.538 7.37 7.37 0 0 1-.394-.68 22.987 22.987 0 0 1-.684-1.496 72.06 72.06 0 0 0-.433-.972c-.12-.262-.278-.569-.472-.92a7.434 7.434 0 0 0-.561-.875 7.024 7.024 0 0 0-.648-.726 3.53 3.53 0 0 0-.788-.6 4.325 4.325 0 0 0-2.054-.511H.847a.274.274 0 0 0-.282.279v1.681a.274.274 0 0 0 .282.282h1.961c.28 0 .534.043.762.132.228.087.43.219.604.394.174.174.323.354.446.538.122.183.254.41.394.678.187.362.413.862.683 1.498.169.384.314.71.434.971.12.262.277.569.472.92.196.35.383.642.56.875.178.233.394.475.649.726.253.251.516.45.788.6a4.325 4.325 0 0 0 2.053.511h2.242V14.7a.274.274 0 0 0 .282.282c.07 0 .141-.029.21-.087L16.18 12.1a.275.275 0 0 0 .08-.202v-.002" fill="#424242" fill-rule="evenodd"/></svg>