<svg xmlns="http://www.w3.org/2000/svg" width="16" height="16" viewBox="0 0 454.839 454.839"
    style="enable-background:new 0 0 454.839 454.839" xml:space="preserve">
    <path
        d="M404.908 283.853c0 94.282-76.71 170.986-170.986 170.986h-60.526c-10.03 0-18.158-8.127-18.158-18.157v-6.053c0-10.031 8.127-18.158 18.158-18.158h60.526c70.917 0 128.618-57.701 128.618-128.618s-57.701-128.618-128.618-128.618H122.255l76.905 76.905c8.26 8.257 8.26 21.699 0 29.956-8.015 8.009-21.964 7.997-29.961 0L56.137 149.031a21.048 21.048 0 0 1-6.206-14.981 21.045 21.045 0 0 1 6.206-14.978L169.205 6.002c7.997-8.003 21.958-8.003 29.956 0 8.26 8.255 8.26 21.699 0 29.953l-76.905 76.911h111.666c94.276 0 170.986 76.707 170.986 170.987z"
        data-original="#000000" class="active-path" data-old_color="#000000" fill="#C5C5C5" />
</svg>