<svg height="16" width="16" viewBox="0 0 512 512" xmlns="http://www.w3.org/2000/svg">
    <path
        d="M207.528 187.158c6.797-50.501 21.724-82.211 58.418-82.211 16.025 0 34.995 4.49 39.39 39.523l1.816 14.535 122.314-12.844-2.798-15.76C412.094 48.163 355.595 0 271.674 0 145.492 0 76 92.76 76 259.368 76 421.631 142.138 512 262.24 512 364.545 512 436 439.315 436 336.665c-.015-146.489-147.158-200.781-228.472-149.507zm54.712 76.875c32.93 0 51.064 26.14 51.064 73.594 0 31.374-8.042 68.783-46.348 68.783-26.382 0-54.771-24.041-54.771-76.802.002-41.053 18.708-65.575 50.055-65.575z"
        fill="#c5c5c5" />
</svg>