<svg viewBox="0 0 512 512" height="16" width="16" xmlns="http://www.w3.org/2000/svg">
    <path
        d="M359.389 233.456C389.55 211.015 407 177.118 407 137.128 407 54.438 346.732 0 254.447 0 162.147 0 102 54.438 102 137.128c0 41.118 17.652 74.736 49.381 97.017C112.68 260.482 91 302.641 91 353.412 91 447.675 158.31 512 258.49 512 357.363 512 421 443.696 421 349.56c0-49.6-22.119-90.66-61.611-116.104zm-103.697 54.199c33.706 0 48.794 29.165 48.794 58.066 0 39.36-17.769 62.856-47.549 62.856-24.038 0-49.731-16.772-49.731-63.823 0-21.21 10.21-57.099 48.486-57.099zm-1.245-102.085c-25.254 0-39.155-14.927-39.155-42.041 0-25.723 14.985-41.074 40.093-41.074 24.316 0 38.833 15.234 38.833 40.752 0 27.319-14.121 42.363-39.771 42.363z"
        fill="#c5c5c5" />
</svg>