<svg height="16" width="16" viewBox="0 0 512 512" xmlns="http://www.w3.org/2000/svg">
    <path
        d="M363.395 231.083c33.926-25.107 51.079-56.792 51.079-94.526C414.474 69.921 353.742 0 252.096 0 93.62 0 84.466 144.392 80.988 151.117l118.74 19.087c1.679-4.734-1.149-65.142 49.658-65.142 45.748 0 47.476 48.183 27.715 67.441-13.91 13.568-22.534 11.392-65.405 14.78l-15.601 109.058c14.685-3.471 39.459-12.041 61.758-12.041 25.591 0 51.416 18.164 51.416 58.755 0 43.682-27.524 63.237-54.8 63.237-57.998 0-55.866-65.857-57.524-70.195L75.158 350.072C76.722 353.074 79.134 512 255.143 512c101.895 0 181.699-73.085 181.699-165.092 0-52.207-27.934-94.936-73.447-115.825z"
        fill="#424242" />
</svg>