<svg id="Capa_1" enable-background="new 0 0 512 512" height="512" viewBox="0 0 512 512" width="512" xmlns="http://www.w3.org/2000/svg">
    <!-- icon originally made by Freepik https://www.freepik.com -->
    <g id="_x36_">
        <path d="m207.528 187.158c6.797-50.501 21.724-82.211 58.418-82.211 16.025 0 34.995 4.49 39.39 39.523l1.816 14.535 122.314-12.844-2.798-15.76c-14.574-82.238-71.073-130.401-154.994-130.401-126.182 0-195.674 92.76-195.674 259.368 0 162.263 66.138 252.632 186.24 252.632 102.305 0 173.76-72.685 173.76-175.335-.015-146.489-147.158-200.781-228.472-149.507zm54.712 76.875c32.93 0 51.064 26.14 51.064 73.594 0 31.374-8.042 68.783-46.348 68.783-26.382 0-54.771-24.041-54.771-76.802.002-41.053 18.708-65.575 50.055-65.575z" fill="#c5c5c5" />
    </g>
</svg>
