<svg viewBox="0 0 512 512" height="16" width="16" xmlns="http://www.w3.org/2000/svg">
    <path
        d="M250.023 0C156.391 0 91 72.528 91 174.936c0 109.849 74.678 169.116 144.932 169.116 23.306 0 44.297-5.977 62.783-17.827-5.83 45.059-18.442 80.435-50.83 80.435-39.824 0-33.909-47.047-36.753-53.848L97.328 365.937C101.89 375.973 94.972 512 241.439 512 357.235 512 421 419.418 421 253.114 421 90.531 360.282 0 250.023 0zm44.444 182.304c0 10.972-2.109 65.742-43.828 65.742-40.664 0-45.059-51.123-45.059-73.11 0-31.597 7.017-69.272 40.459-69.272 35.537-.001 48.428 45.834 48.428 76.64z"
        fill="#c5c5c5" />
</svg>