<svg id="Capa_1" enable-background="new 0 0 512 512" height="512" viewBox="0 0 512 512" width="512" xmlns="http://www.w3.org/2000/svg">
    <!-- icon originally made by Freepik https://www.freepik.com -->
    <g id="_x39_">
        <path d="m250.023 0c-93.632 0-159.023 72.528-159.023 174.936 0 109.849 74.678 169.116 144.932 169.116 23.306 0 44.297-5.977 62.783-17.827-5.83 45.059-18.442 80.435-50.83 80.435-39.824 0-33.909-47.047-36.753-53.848l-113.804 13.125c4.562 10.036-2.356 146.063 144.111 146.063 115.796 0 179.561-92.582 179.561-258.886 0-162.583-60.718-253.114-170.977-253.114zm44.444 182.304c0 10.972-2.109 65.742-43.828 65.742-40.664 0-45.059-51.123-45.059-73.11 0-31.597 7.017-69.272 40.459-69.272 35.537-.001 48.428 45.834 48.428 76.64z" fill="#c5c5c5" />
    </g>
</svg>
