<svg id="Capa_1" enable-background="new 0 0 512 512" height="512" viewBox="0 0 512 512" width="512" xmlns="http://www.w3.org/2000/svg">
    <!-- icon originally made by Freepik https://www.freepik.com -->
    <g id="_x38_">
        <path d="m359.389 233.456c30.161-22.441 47.611-56.338 47.611-96.328 0-82.69-60.268-137.128-152.553-137.128-92.3 0-152.447 54.438-152.447 137.128 0 41.118 17.652 74.736 49.381 97.017-38.701 26.337-60.381 68.496-60.381 119.267 0 94.263 67.31 158.588 167.49 158.588 98.873 0 162.51-68.304 162.51-162.44 0-49.6-22.119-90.66-61.611-116.104zm-103.697 54.199c33.706 0 48.794 29.165 48.794 58.066 0 39.36-17.769 62.856-47.549 62.856-24.038 0-49.731-16.772-49.731-63.823 0-21.21 10.21-57.099 48.486-57.099zm-1.245-102.085c-25.254 0-39.155-14.927-39.155-42.041 0-25.723 14.985-41.074 40.093-41.074 24.316 0 38.833 15.234 38.833 40.752 0 27.319-14.121 42.363-39.771 42.363z" fill="#c5c5c5" />
    </g>
</svg>
