<svg height="16" width="16" viewBox="0 0 512 512" xmlns="http://www.w3.org/2000/svg">
    <path
        d="M272.399 153.729c-15.044 0-30 2.227-44.722 6.621l7.72-42.524h178.606V0H139.201l-53.54 278.621 99.727 14.077c4.191-3.409 26.049-35.874 66.929-35.874 37.383 0 57.964 25.972 57.964 73.11 0 49.248-20.669 78.647-55.283 78.647-55.767 0-54.844-65.602-56.279-68.613L74.997 352.464C76.586 355.547 81.567 512 253.986 512c118.872 0 183.018-94.644 183.018-183.706-.001-114.609-82.808-174.565-164.605-174.565z"
        fill="#c5c5c5" />
</svg>