<?xml version="1.0" encoding="iso-8859-1"?>
<!-- Generator: Adobe Illustrator 16.0.0, SVG Export Plug-In . SVG Version: 6.00 Build 0)  -->
<!DOCTYPE svg PUBLIC "-//W3C//DTD SVG 1.1//EN" "http://www.w3.org/Graphics/SVG/1.1/DTD/svg11.dtd">
<svg xmlns="http://www.w3.org/2000/svg" xmlns:xlink="http://www.w3.org/1999/xlink" version="1.1" id="Capa_1" x="0px" y="0px" width="512px" height="512px" viewBox="0 0 612 612" style="enable-background:new 0 0 612 612;" xml:space="preserve">
<g>
	<path d="M604.717,143.795L472.05,18.402c-3.745-3.529-8.905-5.661-15.783-5.661H22.247C9.708,12.741,0,22.449,0,34.988v542.025   c0,12.538,9.708,22.246,22.247,22.246h567.507c12.538,0,22.246-9.708,22.246-22.246V160.38   C612,153.503,609.308,148.135,604.717,143.795z M271.012,57.64h75.24v126.609h-75.24V57.64z M567.507,554.36H44.493V57.64h92.23   v176.357h261.701V57.64h49.757l119.326,111.646V554.36z" fill="#FFFFFF"/>
</g>
<g>
</g>
<g>
</g>
<g>
</g>
<g>
</g>
<g>
</g>
<g>
</g>
<g>
</g>
<g>
</g>
<g>
</g>
<g>
</g>
<g>
</g>
<g>
</g>
<g>
</g>
<g>
</g>
<g>
</g>
</svg>
